<svg xmlns="http://www.w3.org/2000/svg" xmlns:xlink="http://www.w3.org/1999/xlink" viewBox="0,0,256,256" width="72px" height="72px" fill-rule="nonzero"><g fill="#0056b3" fill-rule="nonzero" stroke="none" stroke-width="1" stroke-linecap="butt" stroke-linejoin="miter" stroke-miterlimit="10" stroke-dasharray="" stroke-dashoffset="0" font-family="none" font-weight="none" font-size="none" text-anchor="none" style="mix-blend-mode: normal"><g transform="scale(10.66667,10.66667)"><path d="M12,2c-5.523,0 -10,4.477 -10,10c0,5.523 4.477,10 10,10c5.523,0 10,-4.477 10,-10c0,-5.523 -4.477,-10 -10,-10zM16,13h-2c-0.552,0 -1,0.448 -1,1v2c0,0.552 -0.448,1 -1,1c-0.552,0 -1,-0.448 -1,-1v-2c0,-0.552 -0.448,-1 -1,-1h-2c-0.552,0 -1,-0.448 -1,-1c0,-0.552 0.448,-1 1,-1h2c0.552,0 1,-0.448 1,-1v-2c0,-0.552 0.448,-1 1,-1c0.552,0 1,0.448 1,1v2c0,0.552 0.448,1 1,1h2c0.552,0 1,0.448 1,1c0,0.552 -0.448,1 -1,1z"></path></g></g></svg>